# xmcd
#
# Track frame offsets:
#	150
#	14927
#	26994
#	36235
#	53037
#	64285
#	77652
#	89745
#	100560
#	112307
#
# Disc length: 1678 seconds
#
# Revision: 1
# Processed by: cddbd v1.5.2PL0 Copyright (c) Steve Scherf et al.
# Submitted via: audiograbber 1.83.01
#
DISCID=8e068c0a
DTITLE=Various Artist - Country Heart Breakers
DYEAR=1997
DGENRE=Country
TTITLE0=George Jones - He Stopped Loving Her Today
TTITLE1=Gene Watson - Memories To Burn
TTITLE2=Charlie Walker - Pick Me Up On Your Way Down
TTITLE3=Merle Haggard - We Never Touch At All
TTITLE4=Janie Frickie - Down To My Last Broken Heart
TTITLE5=Tammy Wynette - D-I-V-O-R-C-E
TTITLE6=Moe Bandy - It's A Cheating Situation
TTITLE7=Billy Walker - Willie The Weeper
TTITLE8=Ray Price - Heartaches By Number
TTITLE9=Willie Nelson and Leon Russell - Heartbreak Hotel
EXTD=
EXTT0=
EXTT1=
EXTT2=
EXTT3=
EXTT4=
EXTT5=
EXTT6=
EXTT7=
EXTT8=
EXTT9=
PLAYORDER=
